HIERARCHY
ROOT Hips
{
	OFFSET 0.00 0.00 0.00
	CHANNELS 6 Xposition Yposition Zposition Xrotation Yrotation Zrotation
	JOINT RightUpLeg
	{
		OFFSET -3.76699 0.00000 0.00000
		CHANNELS 3 Xrotation Yrotation Zrotation
		JOINT RightLeg
		{
			OFFSET 0.00000 -18.01768 0.00000
			CHANNELS 3 Xrotation Yrotation Zrotation
			JOINT RightFoot
			{
				OFFSET 0.00000 -16.88108 0.00000
				CHANNELS 3 Xrotation Yrotation Zrotation
				JOINT RightToeBase
				{
					OFFSET 0.00000 -1.49359 5.57418
					CHANNELS 3 Xrotation Yrotation Zrotation
					End Site
					{
						OFFSET 0.00000 0.00000 2.95275
					}
				}
			}
		}
	}
	JOINT LeftUpLeg
	{
		OFFSET 3.76699 0.00000 0.00000
		CHANNELS 3 Xrotation Yrotation Zrotation
		JOINT LeftLeg
		{
			OFFSET 0.00000 -18.01768 0.00000
			CHANNELS 3 Xrotation Yrotation Zrotation
			JOINT LeftFoot
			{
				OFFSET 0.00000 -16.88108 0.00000
				CHANNELS 3 Xrotation Yrotation Zrotation
				JOINT LeftToeBase
				{
					OFFSET 0.00000 -1.49359 5.57418
					CHANNELS 3 Xrotation Yrotation Zrotation
					End Site
					{
						OFFSET 0.00000 0.00000 2.95275
					}
				}
			}
		}
	}
	JOINT Spine
	{
		OFFSET 0.00000 7.77970 0.00000
		CHANNELS 3 Xrotation Yrotation Zrotation
		JOINT RightShoulder
		{
			OFFSET 0.00000 10.94176 0.00000
			CHANNELS 3 Xrotation Yrotation Zrotation
			JOINT RightArm
			{
				OFFSET -7.70894 0.00000 0.00000
				CHANNELS 3 Xrotation Yrotation Zrotation
				JOINT RightForeArm
				{
					OFFSET -11.52135 0.00000 0.00000
					CHANNELS 3 Yrotation Zrotation Xrotation
					JOINT RightHand
					{
						OFFSET -10.17590 0.00000 0.00000
						CHANNELS 3 Xrotation Yrotation Zrotation
						End Site
						{
							OFFSET -3.93700 0.00000 0.00000
						}
						JOINT RightHandThumb1
						{
							OFFSET 0.00000 0.00000 0.00000
							CHANNELS 3 Xrotation Zrotation Yrotation
							End Site
							{
								OFFSET 0.00000 0.00000 3.93700
							}
						}
					}
				}
			}
		}
		JOINT LeftShoulder
		{
			OFFSET 0.00000 10.94176 0.00000
			CHANNELS 3 Xrotation Yrotation Zrotation
			JOINT LeftArm
			{
				OFFSET 7.70894 0.00000 0.00000
				CHANNELS 3 Xrotation Yrotation Zrotation
				JOINT LeftForeArm
				{
					OFFSET 11.52135 0.00000 0.00000
					CHANNELS 3 Yrotation Zrotation Xrotation
					JOINT LeftHand
					{
						OFFSET 10.17590 0.00000 0.00000
						CHANNELS 3 Xrotation Yrotation Zrotation
						End Site
						{
							OFFSET 3.93700 0.00000 0.00000
						}
						JOINT LeftHandThumb1
						{
							OFFSET 0.00000 0.00000 0.00000
							CHANNELS 3 Xrotation Zrotation Yrotation
							End Site
							{
								OFFSET 0.00000 0.00000 3.93700
							}
						}
					}
				}
			}
		}
		JOINT Head
		{
			OFFSET 0.00000 16.64604 0.00000
			CHANNELS 3 Xrotation Yrotation Zrotation
			End Site
			{
				OFFSET 0.00000 4.52755 0.00000
			}
		}
	}
}
MOTION
Frames: 7
Frame Time: 0.008333
 5.1150 36.8972 5.7623 -15.3613 -27.1896 -11.5767 -20.6475 -39.6104 -33.3964 125.9367 0.0000 0.0000 1.3847 -18.3571 7.2369 -3.3749 0.0000 0.0000 25.4143 11.6706 -7.1382 -6.9581 0.0000 0.0000 -10.7591 24.2418 0.8933 3.0667 0.0000 0.0000 17.8775 -6.2213 -12.1042 34.0557 -2.6811 -2.0689 -9.8795 24.7114 72.9198 48.4346 0.0000 -7.5606 -0.8282 -3.2822 -14.1699 32.8623 0.0000 -24.3270 33.3643 19.0502 1.5430 -57.9357 -2.2045 -59.3212 -110.0789 -0.0000 25.2750 -7.7232 28.8790 15.6849 33.1476 -0.0000 26.2537 25.8330 22.8554 9.1140
 5.1157 36.8734 5.7771 -15.3688 -27.4180 -11.4043 -20.4606 -39.4011 -33.3514 124.9816 -0.0000 0.0000 0.7278 -18.5213 6.7509 -3.2691 -0.0000 0.0000 25.5084 11.6261 -7.3976 -7.0637 0.0000 0.0000 -10.7906 24.3556 0.7638 3.1841 0.0000 -0.0000 17.7480 -6.1057 -12.4493 34.0538 -2.6736 -2.1019 -9.8813 24.7997 72.9271 48.4468 0.0000 -7.6329 -0.8230 -3.2679 -14.1439 32.8623 0.0000 -24.3270 33.3629 19.0671 1.5368 -57.9680 -2.1813 -59.1044 -110.2043 -0.0000 25.3077 -7.6918 29.0265 15.5545 33.1476 -0.0000 26.2537 25.8157 22.8548 9.1134
 5.1134 36.8513 5.7939 -15.3904 -27.6706 -11.2597 -20.2643 -39.1822 -33.2790 124.0891 0.0000 -0.0000 0.2119 -18.7366 6.3601 -3.3956 -0.0000 0.0000 25.6171 11.5448 -7.6345 -7.1814 0.0000 0.0000 -10.7968 24.4825 0.7212 3.2167 0.0000 -0.0000 17.6177 -5.9652 -12.7772 34.0494 -2.6553 -2.1126 -9.8723 24.9087 72.9015 48.4399 0.0000 -7.6289 -0.8101 -3.2112 -14.1664 32.8623 0.0000 -24.3270 33.4124 19.1176 1.4896 -58.0541 -2.1803 -58.9339 -110.2893 -0.0000 25.3852 -7.6869 29.1065 15.5079 33.1476 -0.0000 26.2537 25.8326 22.8386 9.0887
 5.1159 36.8297 5.8089 -15.3946 -27.9514 -11.0843 -20.1559 -38.9408 -33.2590 123.2732 0.0000 0.0000 -0.2945 -19.1983 6.3475 -2.8739 -0.0000 0.0000 25.7044 11.4574 -7.9062 -7.2901 -0.0000 -0.0000 -10.7846 24.6144 0.7306 3.1922 0.0000 0.0000 17.4698 -5.8036 -13.1272 34.0286 -2.6435 -2.1024 -9.8598 25.0369 72.8572 48.4191 0.0000 -7.6250 -0.8087 -3.2211 -14.1021 32.8623 0.0000 -24.3270 33.4447 19.1623 1.4651 -58.1301 -2.1585 -58.8145 -110.3685 -0.0000 25.3784 -7.8241 29.1877 15.7362 33.1476 -0.0000 26.2537 25.8586 22.8562 9.0542
 5.1198 36.8090 5.8219 -15.3790 -28.2322 -10.9149 -20.0933 -38.7233 -33.2419 122.5658 0.0000 0.0000 -0.7301 -19.6269 6.1990 -2.5854 -0.0000 0.0000 25.7374 11.3359 -8.1583 -7.3631 -0.0000 0.0000 -10.8092 24.8261 0.6622 3.2468 0.0000 -0.0000 17.2975 -5.6515 -13.4494 34.0421 -2.6192 -2.1035 -9.8902 25.1457 72.8221 48.3873 0.0000 -7.6693 -0.7924 -3.1672 -14.0541 32.8623 0.0000 -24.3270 33.3904 19.1812 1.4736 -58.1006 -2.0761 -58.6440 -110.4382 -0.0000 25.5645 -7.8474 29.1560 15.7963 33.1476 -0.0000 26.2537 25.9440 22.8755 8.9753
 5.1228 36.7909 5.8354 -15.3872 -28.4983 -10.8032 -20.0049 -38.5629 -33.1839 121.9363 -0.0000 -0.0000 -1.0531 -19.9676 5.7926 -2.6608 -0.0000 -0.0000 25.7939 11.2958 -8.3668 -7.4328 -0.0000 0.0000 -10.8407 24.9797 0.5591 3.3190 0.0000 0.0000 17.1602 -5.5000 -13.6989 34.0093 -2.6012 -2.0954 -9.9045 25.2356 72.7600 48.3400 0.0000 -7.6673 -0.8043 -3.2178 -14.0420 32.8623 0.0000 -24.3270 33.3683 19.2053 1.4918 -58.1163 -1.9340 -58.6210 -110.5118 -0.0000 25.7074 -7.9919 29.1900 16.0596 33.1476 -0.0000 26.2537 26.0446 22.8848 8.8762
 5.1249 36.7753 5.8487 -15.4009 -28.7468 -10.7016 -19.9003 -38.4338 -33.1197 121.3845 0.0000 -0.0000 -1.5075 -20.3083 5.4414 -3.6194 -0.0000 0.0000 25.8480 11.3253 -8.5650 -7.4685 0.0000 -0.0000 -10.8661 25.0501 0.4939 3.3791 -0.0000 -0.0000 17.0385 -5.3611 -13.9363 33.9577 -2.5759 -2.0684 -9.8915 25.3208 72.6826 48.3003 0.0000 -7.6165 -0.8128 -3.2433 -14.0772 32.8623 0.0000 -24.3270 33.3512 19.2251 1.5038 -58.1542 -1.7392 -58.5596 -110.5939 -0.0000 26.0382 -7.9054 29.3214 15.8306 33.1476 -0.0000 26.2537 26.1414 22.9035 8.7757
